<?xml version="1.0" standalone="no"?>
<!DOCTYPE svg PUBLIC "-//W3C//DTD SVG 20010904//EN"
 "http://www.w3.org/TR/2001/REC-SVG-20010904/DTD/svg10.dtd">
<svg version="1.0" xmlns="http://www.w3.org/2000/svg"
 width="237.000000pt" height="213.000000pt" viewBox="0 0 237.000000 213.000000"
 preserveAspectRatio="xMidYMid meet">

<g transform="translate(0.000000,213.000000) scale(0.100000,-0.100000)"
fill="#00BBE3" stroke="none">
<path d="M1197 2123 c-4 -3 -7 -30 -7 -60 l0 -53 65 0 65 0 0 -75 0 -75 30 0
29 0 3 73 3 72 180 0 180 0 3 -72 3 -73 29 0 30 0 0 75 0 75 60 0 60 0 0 60 0
60 -363 0 c-200 0 -367 -3 -370 -7z"/>
<path d="M34 1842 c-15 -9 -34 -47 -34 -65 0 -8 9 -25 19 -38 19 -24 23 -24
228 -29 203 -5 209 -6 265 -33 71 -35 139 -109 170 -185 22 -55 23 -69 26
-409 l3 -353 28 0 c15 0 49 -6 75 -14 l48 -14 -5 366 c-3 299 -7 377 -20 421
-51 172 -165 294 -318 342 -51 16 -92 19 -267 19 -114 0 -212 -4 -218 -8z"/>
<path d="M1103 1790 c-71 -43 -68 -20 -71 -563 -3 -473 -2 -491 17 -531 38
-78 24 -76 511 -76 416 0 434 1 465 20 66 41 65 36 65 572 0 538 1 528 -69
575 l-34 23 -426 0 c-405 0 -428 -1 -458 -20z m559 -110 l-3 -90 -100 0 -99 0
0 90 0 90 103 0 102 0 -3 -90z m243 -300 l0 -35 -342 -3 -343 -2 0 40 0 40
343 -2 342 -3 0 -35z m0 -250 l0 -35 -342 -3 -343 -2 0 40 0 40 343 -2 342 -3
0 -35z m0 -250 l0 -35 -342 -3 -343 -2 0 40 0 40 343 -2 342 -3 0 -35z"/>
<path d="M604 636 c-64 -20 -131 -72 -169 -129 -110 -168 -47 -390 135 -476
45 -21 69 -25 135 -25 103 0 165 26 233 98 153 161 106 419 -93 516 -59 29
-178 37 -241 16z m173 -201 c54 -36 71 -111 39 -173 -30 -57 -113 -80 -176
-47 -48 25 -75 92 -59 148 22 82 124 119 196 72z"/>
<path d="M1094 445 c4 -14 9 -45 13 -70 l6 -45 365 0 364 0 -7 -22 c-4 -13
-10 -48 -12 -79 -12 -147 140 -253 279 -195 47 20 105 87 114 131 7 39 1 119
-11 147 -6 16 0 18 58 18 59 0 68 3 86 26 26 34 26 54 0 88 l-20 26 -621 0
-620 0 6 -25z m994 -161 c34 -39 30 -95 -9 -128 -41 -35 -83 -34 -120 3 -48
49 -37 120 24 147 41 17 76 10 105 -22z"/>
</g>
</svg>